<mxfile host="app.diagrams.net" modified="2020-11-07T17:26:54.243Z" agent="5.0 (X11)" etag="Drs5Jhzee1WMTIRU8A7Z" version="13.9.2" type="github">
  <diagram id="CQ5-SCFiZAmAGeY1lwmJ" name="Page-1">
    <mxGraphModel dx="1422" dy="1903" grid="1" gridSize="10" guides="1" tooltips="1" connect="1" arrows="1" fold="1" page="1" pageScale="1" pageWidth="850" pageHeight="1100" math="0" shadow="0">
      <root>
        <mxCell id="0" />
        <mxCell id="1" parent="0" />
        <mxCell id="Uq4jdsSz1HJpVTgpHxvG-2" value="Client" style="swimlane;" parent="1" vertex="1">
          <mxGeometry x="30" y="50" width="340" height="520" as="geometry" />
        </mxCell>
        <mxCell id="Uq4jdsSz1HJpVTgpHxvG-6" style="edgeStyle=orthogonalEdgeStyle;rounded=0;orthogonalLoop=1;jettySize=auto;html=1;" parent="Uq4jdsSz1HJpVTgpHxvG-2" source="Uq4jdsSz1HJpVTgpHxvG-1" target="Uq4jdsSz1HJpVTgpHxvG-5" edge="1">
          <mxGeometry relative="1" as="geometry" />
        </mxCell>
        <mxCell id="Uq4jdsSz1HJpVTgpHxvG-1" value="SetInterval for every second" style="rounded=1;whiteSpace=wrap;html=1;" parent="Uq4jdsSz1HJpVTgpHxvG-2" vertex="1">
          <mxGeometry x="10" y="160" width="120" height="60" as="geometry" />
        </mxCell>
        <mxCell id="Uq4jdsSz1HJpVTgpHxvG-3" value="Powered by PHP and mostly client-side Javascript" style="rounded=0;whiteSpace=wrap;html=1;" parent="Uq4jdsSz1HJpVTgpHxvG-2" vertex="1">
          <mxGeometry y="30" width="340" height="50" as="geometry" />
        </mxCell>
        <mxCell id="Uq4jdsSz1HJpVTgpHxvG-5" value="&lt;pre style=&quot;font-size: 7px&quot;&gt;&lt;font style=&quot;font-size: 7px&quot;&gt;&lt;code class=&quot;hljs xml&quot;&gt;&lt;span class=&quot;javascript&quot;&gt;&lt;span class=&quot;javascript&quot;&gt;navigator.geolocation.getCurrentPosition&lt;/span&gt;&lt;/span&gt;&lt;/code&gt;&lt;/font&gt;&lt;/pre&gt;" style="rounded=0;whiteSpace=wrap;html=1;fontStyle=1" parent="Uq4jdsSz1HJpVTgpHxvG-2" vertex="1">
          <mxGeometry x="10" y="260" width="120" height="60" as="geometry" />
        </mxCell>
        <mxCell id="Uq4jdsSz1HJpVTgpHxvG-8" value="Client" style="swimlane;spacingRight=2;spacing=4;autosize=0;whiteSpace=wrap;" parent="1" vertex="1">
          <mxGeometry x="440" y="-110" width="470" height="680" as="geometry" />
        </mxCell>
        <mxCell id="Uq4jdsSz1HJpVTgpHxvG-9" style="edgeStyle=orthogonalEdgeStyle;rounded=0;orthogonalLoop=1;jettySize=auto;html=1;" parent="Uq4jdsSz1HJpVTgpHxvG-8" edge="1">
          <mxGeometry relative="1" as="geometry">
            <mxPoint x="130" y="190.00000000000023" as="sourcePoint" />
          </mxGeometry>
        </mxCell>
        <mxCell id="Uq4jdsSz1HJpVTgpHxvG-11" value="Definitively powered by Node.js " style="rounded=0;whiteSpace=wrap;html=1;" parent="Uq4jdsSz1HJpVTgpHxvG-8" vertex="1">
          <mxGeometry y="30" width="340" height="50" as="geometry" />
        </mxCell>
        <mxCell id="Ihg67YJzbRDvW6LbFoeo-3" value="ws://url/pinfo (playerinfo)" style="swimlane;" vertex="1" parent="Uq4jdsSz1HJpVTgpHxvG-8">
          <mxGeometry y="260" width="200" height="200" as="geometry" />
        </mxCell>
        <mxCell id="Ihg67YJzbRDvW6LbFoeo-9" style="edgeStyle=orthogonalEdgeStyle;rounded=0;orthogonalLoop=1;jettySize=auto;html=1;" edge="1" parent="Uq4jdsSz1HJpVTgpHxvG-8" source="Ihg67YJzbRDvW6LbFoeo-5" target="Ihg67YJzbRDvW6LbFoeo-7">
          <mxGeometry relative="1" as="geometry" />
        </mxCell>
        <mxCell id="Ihg67YJzbRDvW6LbFoeo-11" style="edgeStyle=orthogonalEdgeStyle;rounded=0;orthogonalLoop=1;jettySize=auto;html=1;" edge="1" parent="Uq4jdsSz1HJpVTgpHxvG-8" source="Ihg67YJzbRDvW6LbFoeo-5" target="Ihg67YJzbRDvW6LbFoeo-10">
          <mxGeometry relative="1" as="geometry" />
        </mxCell>
        <mxCell id="Ihg67YJzbRDvW6LbFoeo-5" value="onStart()" style="rounded=1;whiteSpace=wrap;html=1;" vertex="1" parent="Uq4jdsSz1HJpVTgpHxvG-8">
          <mxGeometry x="20" y="90" width="60" height="20" as="geometry" />
        </mxCell>
        <mxCell id="Ihg67YJzbRDvW6LbFoeo-7" value="&lt;ul&gt;&lt;li&gt;start ws servers&lt;/li&gt;&lt;li&gt;- /pinfo | for Player Info&lt;/li&gt;&lt;li&gt;- /loc | Location&lt;/li&gt;&lt;li&gt;- /basic | Basic Info&lt;br&gt;&lt;/li&gt;&lt;/ul&gt;" style="text;strokeColor=none;fillColor=none;html=1;verticalAlign=middle;overflow=hidden;labelBorderColor=none;spacingRight=2;spacingBottom=2;spacingLeft=2;" vertex="1" parent="Uq4jdsSz1HJpVTgpHxvG-8">
          <mxGeometry x="-15" y="140" width="200" height="80" as="geometry" />
        </mxCell>
        <mxCell id="Ihg67YJzbRDvW6LbFoeo-10" value="&lt;div&gt;Officially start the game :)&lt;/div&gt;" style="rounded=0;whiteSpace=wrap;html=1;" vertex="1" parent="Uq4jdsSz1HJpVTgpHxvG-8">
          <mxGeometry x="140" y="80" width="190" height="30" as="geometry" />
        </mxCell>
        <mxCell id="Ihg67YJzbRDvW6LbFoeo-12" value="ws://url/loc (location)" style="swimlane;" vertex="1" parent="Uq4jdsSz1HJpVTgpHxvG-8">
          <mxGeometry y="460" width="200" height="200" as="geometry" />
        </mxCell>
        <mxCell id="Uq4jdsSz1HJpVTgpHxvG-14" value="General Info" style="swimlane;" parent="1" vertex="1">
          <mxGeometry x="20" y="-430" width="880" height="280" as="geometry" />
        </mxCell>
        <mxCell id="Uq4jdsSz1HJpVTgpHxvG-16" value="Communication: Websockets" style="rounded=0;whiteSpace=wrap;html=1;" parent="Uq4jdsSz1HJpVTgpHxvG-14" vertex="1">
          <mxGeometry y="30" width="200" height="60" as="geometry" />
        </mxCell>
        <mxCell id="Ihg67YJzbRDvW6LbFoeo-18" value="Setup" style="swimlane;html=0;" vertex="1" parent="Uq4jdsSz1HJpVTgpHxvG-14">
          <mxGeometry x="200" y="30" width="200" height="200" as="geometry" />
        </mxCell>
        <mxCell id="Ihg67YJzbRDvW6LbFoeo-21" value="&lt;ul&gt;&lt;li&gt;Go around playarea and get up geomaps&lt;br&gt;&lt;/li&gt;&lt;/ul&gt;" style="text;strokeColor=none;fillColor=none;html=1;whiteSpace=wrap;verticalAlign=middle;overflow=hidden;" vertex="1" parent="Ihg67YJzbRDvW6LbFoeo-18">
          <mxGeometry y="20" width="180" height="80" as="geometry" />
        </mxCell>
      </root>
    </mxGraphModel>
  </diagram>
</mxfile>
